<?xml version="1.0" encoding="utf-8"?>
<!-- Generator: Adobe Illustrator 15.1.0, SVG Export Plug-In . SVG Version: 6.00 Build 0)  -->
<!DOCTYPE svg PUBLIC "-//W3C//DTD SVG 1.1 Tiny//EN" "http://www.w3.org/Graphics/SVG/1.1/DTD/svg11-tiny.dtd">
<svg version="1.1" baseProfile="tiny" id="Default" xmlns="http://www.w3.org/2000/svg" xmlns:xlink="http://www.w3.org/1999/xlink"
	 x="0px" y="0px" width="3833.477px" height="2492.801px" viewBox="0 0 3833.477 2492.801" xml:space="preserve">
<line fill="none" stroke="#B2B2B2" stroke-linecap="round" stroke-linejoin="round" x1="11.995" y1="147.488" x2="3760.341" y2="2492.797"/>
<line fill="none" stroke="#B2B2B2" stroke-linecap="round" stroke-linejoin="round" x1="3833.48" y1="220.092" x2="201.167" y2="2492.797"/>
<line fill="none" stroke="#B2B2B2" stroke-linecap="round" stroke-linejoin="round" x1="3833.48" y1="143.682" x2="11.995" y2="2395.477"/>
<line fill="none" stroke="#B2B2B2" stroke-linecap="round" stroke-linejoin="round" x1="3833.48" y1="69.645" x2="11.995" y2="2186.45"/>
<line fill="none" stroke="#B2B2B2" stroke-linecap="round" stroke-linejoin="round" x1="3814.146" y1="7.793" x2="11.995" y2="1983.499"/>
<line fill="none" stroke="#B2B2B2" stroke-linecap="round" stroke-linejoin="round" x1="3669.011" y1="7.793" x2="11.995" y2="1786.079"/>
<line fill="none" stroke="#B2B2B2" stroke-linecap="round" stroke-linejoin="round" x1="3507.059" y1="7.793" x2="11.995" y2="1593.721"/>
<line fill="none" stroke="#B2B2B2" stroke-linecap="round" stroke-linejoin="round" x1="3324.905" y1="7.793" x2="11.995" y2="1405.952"/>
<line fill="none" stroke="#B2B2B2" stroke-linecap="round" stroke-linejoin="round" x1="3118.222" y1="7.793" x2="11.995" y2="1222.351"/>
<line fill="none" stroke="#B2B2B2" stroke-linecap="round" stroke-linejoin="round" x1="2881.322" y1="7.793" x2="11.995" y2="1042.542"/>
<line fill="none" stroke="#B2B2B2" stroke-linecap="round" stroke-linejoin="round" x1="2606.665" y1="7.793" x2="11.995" y2="866.146"/>
<line fill="none" stroke="#B2B2B2" stroke-linecap="round" stroke-linejoin="round" x1="2283.891" y1="7.793" x2="11.995" y2="692.835"/>
<line fill="none" stroke="#B2B2B2" stroke-linecap="round" stroke-linejoin="round" x1="1898.599" y1="7.793" x2="11.995" y2="522.288"/>
<line fill="none" stroke="#B2B2B2" stroke-linecap="round" stroke-linejoin="round" x1="1429.922" y1="7.793" x2="11.995" y2="354.2"/>
<line fill="none" stroke="#B2B2B2" stroke-linecap="round" stroke-linejoin="round" x1="846.557" y1="7.793" x2="11.995" y2="188.283"/>
<line fill="none" stroke="#B2B2B2" stroke-linecap="round" stroke-linejoin="round" x1="99.36" y1="7.793" x2="11.995" y2="24.262"/>
<line fill="none" stroke="#B2B2B2" stroke-linecap="round" stroke-linejoin="round" x1="3114.951" y1="7.793" x2="3833.48" y2="163.189"/>
<line fill="none" stroke="#B2B2B2" stroke-linecap="round" stroke-linejoin="round" x1="2531.602" y1="7.793" x2="3833.48" y2="325.85"/>
<line fill="none" stroke="#B2B2B2" stroke-linecap="round" stroke-linejoin="round" x1="2062.91" y1="7.793" x2="3833.48" y2="490.638"/>
<line fill="none" stroke="#B2B2B2" stroke-linecap="round" stroke-linejoin="round" x1="1677.618" y1="7.793" x2="3833.48" y2="657.843"/>
<line fill="none" stroke="#B2B2B2" stroke-linecap="round" stroke-linejoin="round" x1="1354.858" y1="7.793" x2="3833.48" y2="827.769"/>
<line fill="none" stroke="#B2B2B2" stroke-linecap="round" stroke-linejoin="round" x1="1080.188" y1="7.793" x2="3833.48" y2="1000.69"/>
<line fill="none" stroke="#B2B2B2" stroke-linecap="round" stroke-linejoin="round" x1="454.449" y1="7.793" x2="3833.48" y2="1541.073"/>
<line fill="none" stroke="#B2B2B2" stroke-linecap="round" stroke-linejoin="round" x1="292.498" y1="7.793" x2="3833.48" y2="1729.653"/>
<line fill="none" stroke="#B2B2B2" stroke-linecap="round" stroke-linejoin="round" x1="147.362" y1="7.793" x2="3833.48" y2="1923.196"/>
<line fill="none" stroke="#B2B2B2" stroke-linecap="round" stroke-linejoin="round" x1="16.38" y1="7.793" x2="3833.48" y2="2122.167"/>
<line fill="none" stroke="#B2B2B2" stroke-linecap="round" stroke-linejoin="round" x1="11.995" y1="75.318" x2="3833.48" y2="2327.098"/>
<line fill="none" stroke="#B2B2B2" stroke-linecap="round" stroke-linejoin="round" x1="636.604" y1="7.793" x2="3833.48" y2="1356.981"/>
<line fill="none" stroke="#B2B2B2" stroke-linecap="round" stroke-linejoin="round" x1="843.287" y1="7.793" x2="3833.48" y2="1176.983"/>
<line fill="none" stroke="#B2B2B2" stroke-linecap="round" stroke-linejoin="round" x1="3833.48" y1="2466.084" x2="3817.735" y2="2492.797"/>
<line fill="none" stroke="#B2B2B2" stroke-linecap="round" stroke-linejoin="round" x1="3833.48" y1="2258.836" x2="3687.086" y2="2492.797"/>
<line fill="none" stroke="#B2B2B2" stroke-linecap="round" stroke-linejoin="round" x1="3833.48" y1="2068.52" x2="3552.021" y2="2492.797"/>
<line fill="none" stroke="#B2B2B2" stroke-linecap="round" stroke-linejoin="round" x1="3833.48" y1="1892.893" x2="3412.097" y2="2492.797"/>
<line fill="none" stroke="#B2B2B2" stroke-linecap="round" stroke-linejoin="round" x1="3833.48" y1="1730.086" x2="3266.831" y2="2492.797"/>
<line fill="none" stroke="#B2B2B2" stroke-linecap="round" stroke-linejoin="round" x1="3833.48" y1="1578.555" x2="3115.704" y2="2492.797"/>
<line fill="none" stroke="#B2B2B2" stroke-linecap="round" stroke-linejoin="round" x1="3833.48" y1="1436.965" x2="2958.123" y2="2492.797"/>
<line fill="none" stroke="#B2B2B2" stroke-linecap="round" stroke-linejoin="round" x1="3833.48" y1="1304.188" x2="2793.421" y2="2492.797"/>
<line fill="none" stroke="#B2B2B2" stroke-linecap="round" stroke-linejoin="round" x1="3833.48" y1="1179.255" x2="2620.876" y2="2492.797"/>
<line fill="none" stroke="#B2B2B2" stroke-linecap="round" stroke-linejoin="round" x1="3833.48" y1="1061.326" x2="2439.62" y2="2492.797"/>
<line fill="none" stroke="#B2B2B2" stroke-linecap="round" stroke-linejoin="round" x1="3833.48" y1="949.677" x2="2248.725" y2="2492.797"/>
<line fill="none" stroke="#B2B2B2" stroke-linecap="round" stroke-linejoin="round" x1="3833.48" y1="843.673" x2="2047.078" y2="2492.797"/>
<line fill="none" stroke="#B2B2B2" stroke-linecap="round" stroke-linejoin="round" x1="3833.48" y1="742.748" x2="1833.462" y2="2492.797"/>
<line fill="none" stroke="#B2B2B2" stroke-linecap="round" stroke-linejoin="round" x1="3833.48" y1="646.425" x2="1606.432" y2="2492.797"/>
<line fill="none" stroke="#B2B2B2" stroke-linecap="round" stroke-linejoin="round" x1="3833.48" y1="554.27" x2="1364.336" y2="2492.797"/>
<line fill="none" stroke="#B2B2B2" stroke-linecap="round" stroke-linejoin="round" x1="3833.48" y1="465.877" x2="1105.251" y2="2492.797"/>
<line fill="none" stroke="#B2B2B2" stroke-linecap="round" stroke-linejoin="round" x1="3833.48" y1="380.929" x2="826.89" y2="2492.797"/>
<line fill="none" stroke="#B2B2B2" stroke-linecap="round" stroke-linejoin="round" x1="3833.48" y1="299.092" x2="526.59" y2="2492.797"/>
<line fill="none" stroke="#B2B2B2" stroke-linecap="round" stroke-linejoin="round" x1="11.995" y1="222.118" x2="3434.918" y2="2492.797"/>
<line fill="none" stroke="#B2B2B2" stroke-linecap="round" stroke-linejoin="round" x1="11.995" y1="299.425" x2="3134.633" y2="2492.797"/>
<line fill="none" stroke="#B2B2B2" stroke-linecap="round" stroke-linejoin="round" x1="11.995" y1="379.67" x2="2856.271" y2="2492.797"/>
<line fill="none" stroke="#B2B2B2" stroke-linecap="round" stroke-linejoin="round" x1="11.995" y1="463.171" x2="2597.172" y2="2492.797"/>
<line fill="none" stroke="#B2B2B2" stroke-linecap="round" stroke-linejoin="round" x1="11.995" y1="550.232" x2="2355.077" y2="2492.797"/>
<line fill="none" stroke="#B2B2B2" stroke-linecap="round" stroke-linejoin="round" x1="11.995" y1="641.215" x2="2128.046" y2="2492.797"/>
<line fill="none" stroke="#B2B2B2" stroke-linecap="round" stroke-linejoin="round" x1="11.995" y1="736.554" x2="1914.431" y2="2492.797"/>
<line fill="none" stroke="#B2B2B2" stroke-linecap="round" stroke-linejoin="round" x1="11.995" y1="836.698" x2="1712.798" y2="2492.797"/>
<line fill="none" stroke="#B2B2B2" stroke-linecap="round" stroke-linejoin="round" x1="11.995" y1="942.167" x2="1521.889" y2="2492.797"/>
<line fill="none" stroke="#B2B2B2" stroke-linecap="round" stroke-linejoin="round" x1="11.995" y1="1053.569" x2="1340.632" y2="2492.797"/>
<line fill="none" stroke="#B2B2B2" stroke-linecap="round" stroke-linejoin="round" x1="11.995" y1="1171.585" x2="1168.087" y2="2492.797"/>
<line fill="none" stroke="#B2B2B2" stroke-linecap="round" stroke-linejoin="round" x1="11.995" y1="1297.01" x2="1003.386" y2="2492.797"/>
<line fill="none" stroke="#B2B2B2" stroke-linecap="round" stroke-linejoin="round" x1="11.995" y1="1430.756" x2="845.805" y2="2492.797"/>
<line fill="none" stroke="#B2B2B2" stroke-linecap="round" stroke-linejoin="round" x1="11.995" y1="1573.909" x2="694.678" y2="2492.797"/>
<line fill="none" stroke="#B2B2B2" stroke-linecap="round" stroke-linejoin="round" x1="11.995" y1="1727.7" x2="549.412" y2="2492.797"/>
<line fill="none" stroke="#B2B2B2" stroke-linecap="round" stroke-linejoin="round" x1="11.995" y1="1893.602" x2="409.486" y2="2492.797"/>
<line fill="none" stroke="#B2B2B2" stroke-linecap="round" stroke-linejoin="round" x1="11.995" y1="2073.383" x2="274.423" y2="2492.797"/>
<line fill="none" stroke="#B2B2B2" stroke-linecap="round" stroke-linejoin="round" x1="11.995" y1="2269.155" x2="143.773" y2="2492.797"/>
<line fill="none" stroke="#B2B2B2" stroke-linecap="round" stroke-linejoin="round" x1="11.995" y1="2483.463" x2="17.176" y2="2492.797"/>
<rect x="11.995" y="7.793" fill="none" stroke="#B2B2B2" stroke-linecap="round" stroke-linejoin="round" width="3821.486" height="2485.004"/>
</svg>
